<svg width="23" height="23" viewBox="0 0 23 23" fill="none" xmlns="http://www.w3.org/2000/svg">
<g clip-path="url(#clip0_484_893)">
<path d="M19.4872 7.95061L19.2612 8.46915C19.0958 8.84877 18.5707 8.84877 18.4053 8.46915L18.1793 7.95061C17.7764 7.02602 17.0508 6.28988 16.1453 5.88716L15.4489 5.57746C15.0724 5.40999 15.0724 4.86208 15.4489 4.69461L16.1063 4.40222C17.0351 3.98914 17.7738 3.22576 18.1697 2.26977L18.4018 1.70941C18.5636 1.31887 19.1029 1.31887 19.2646 1.70941L19.4967 2.26977C19.8927 3.22576 20.6314 3.98914 21.5602 4.40222L22.2175 4.69461C22.5941 4.86208 22.5941 5.40999 22.2175 5.57746L21.5212 5.88716C20.6157 6.28988 19.8901 7.02602 19.4872 7.95061ZM9.66658 3.24984H12.4166C12.9228 3.24984 13.3333 3.66024 13.3333 4.16651C13.3333 4.67277 12.9228 5.08317 12.4166 5.08317H9.66658C6.62902 5.08317 4.16659 7.5456 4.16659 10.5832C4.16659 13.8923 6.42349 16.0516 11.4999 18.3563V17.0832C11.4999 16.5309 11.9476 16.0832 12.4999 16.0832H13.3333C16.0598 16.0832 18.323 14.0991 18.7578 11.496C18.8413 10.9967 19.2437 10.5832 19.7499 10.5832C20.2562 10.5832 20.6726 10.9956 20.6101 11.498C20.1598 15.1164 17.0735 17.9165 13.3333 17.9165V19.6478C13.3333 20.3553 12.6184 20.8405 11.9657 20.5677C7.5737 18.7322 2.33325 15.9678 2.33325 10.5832C2.33325 6.53308 5.61649 3.24984 9.66658 3.24984Z" fill="#918F91"/>
</g>
<defs>
<clipPath id="clip0_484_893">
<rect width="22" height="22" fill="white" transform="translate(0.5 0.5)"/>
</clipPath>
</defs>
</svg>
