<svg width="25" height="25" viewBox="0 0 25 25" fill="none" xmlns="http://www.w3.org/2000/svg">
<path d="M3.5 12.4896V15C3.5 18.2998 3.5 19.9497 4.52513 20.9749C5.55025 22 7.20017 22 10.5 22H14.5C17.7998 22 19.4497 22 20.4749 20.9749C21.5 19.9497 21.5 18.2998 21.5 15V12.4896C21.5 10.8083 21.5 9.96773 21.1441 9.24005C20.7882 8.51237 20.1247 7.99628 18.7976 6.96411L16.7976 5.40855C14.7331 3.80285 13.7009 3 12.5 3C11.2991 3 10.2669 3.80285 8.20242 5.40855L6.20241 6.96411C4.87533 7.99628 4.21179 8.51237 3.8559 9.24005C3.5 9.96773 3.5 10.8083 3.5 12.4896Z" stroke="#918F91" stroke-width="2" stroke-linecap="round" stroke-linejoin="round"/>
<path d="M15.5003 17.5C14.7008 18.1224 13.6505 18.5 12.5003 18.5C11.35 18.5 10.2998 18.1224 9.50024 17.5" stroke="#918F91" stroke-width="1.5" stroke-linecap="round" stroke-linejoin="round"/>
</svg>
