<svg width="23" height="23" viewBox="0 0 23 23" fill="none" xmlns="http://www.w3.org/2000/svg">
<path d="M13.7917 8.75016C13.7917 10.0158 12.7657 11.0418 11.5 11.0418C10.2344 11.0418 9.20837 10.0158 9.20837 8.75016C9.20837 7.48451 10.2344 6.4585 11.5 6.4585C12.7657 6.4585 13.7917 7.48451 13.7917 8.75016Z" stroke="#918F91" stroke-width="1.5"/>
<path d="M17.2036 16.0835C18.4819 17.9063 19.0934 18.877 18.7292 19.6584C18.6927 19.7368 18.6499 19.8124 18.6013 19.8846C18.0747 20.6668 16.7135 20.6668 13.9913 20.6668H9.00867C6.28642 20.6668 4.9253 20.6668 4.39864 19.8846C4.35 19.8124 4.30723 19.7368 4.27071 19.6584C3.90646 18.877 4.51795 17.9063 5.79626 16.0835" stroke="#918F91" stroke-width="2" stroke-linecap="round" stroke-linejoin="round"/>
<path d="M12.6527 16.536C12.3435 16.8337 11.9302 17.0002 11.5002 17.0002C11.0701 17.0002 10.6569 16.8337 10.3477 16.536C7.51648 13.7926 3.7223 10.7279 5.57261 6.27858C6.57305 3.87287 8.97457 2.3335 11.5002 2.3335C14.0258 2.3335 16.4273 3.87288 17.4278 6.27858C19.2758 10.7223 15.4908 13.802 12.6527 16.536Z" stroke="#918F91" stroke-width="2"/>
</svg>
