<svg width="23" height="23" viewBox="0 0 23 23" fill="none" xmlns="http://www.w3.org/2000/svg">
<path d="M14.7084 11.4998C14.7084 13.2718 13.272 14.7082 11.5001 14.7082C9.72816 14.7082 8.29175 13.2718 8.29175 11.4998C8.29175 9.72792 9.72816 8.2915 11.5001 8.2915C13.272 8.2915 14.7084 9.72792 14.7084 11.4998Z" stroke="#918F91" stroke-width="1.5"/>
<path d="M19.76 13.4216C20.2384 13.2926 20.4777 13.2281 20.5721 13.1047C20.6666 12.9814 20.6666 12.7829 20.6666 12.3861V10.6136C20.6666 10.2167 20.6666 10.0183 20.5721 9.89499C20.4776 9.77161 20.2384 9.70707 19.76 9.57808C17.9721 9.09592 16.8532 7.22676 17.3146 5.45059C17.4415 4.96212 17.5049 4.71789 17.4443 4.57465C17.3837 4.4314 17.2099 4.33269 16.8621 4.13526L15.2812 3.23763C14.94 3.0439 14.7694 2.94704 14.6163 2.96766C14.4631 2.98829 14.2904 3.16063 13.9449 3.5053C12.6073 4.83974 10.3941 4.83968 9.0564 3.50522C8.7109 3.16054 8.53815 2.98821 8.38502 2.96757C8.2319 2.94695 8.06129 3.04381 7.72007 3.23754L6.13911 4.13518C5.7914 4.33259 5.61755 4.4313 5.55697 4.57452C5.49638 4.71775 5.5598 4.96201 5.68665 5.45053C6.14784 7.22676 5.028 9.09596 3.23985 9.5781C2.76145 9.70707 2.52224 9.77161 2.42774 9.8949C2.33325 10.0183 2.33325 10.2167 2.33325 10.6136V12.3861C2.33325 12.7829 2.33325 12.9814 2.42774 13.1047C2.52222 13.2281 2.76144 13.2926 3.23985 13.4216C5.0277 13.9038 6.14666 15.7729 5.68525 17.5491C5.55835 18.0376 5.4949 18.2818 5.55548 18.425C5.61607 18.5683 5.78993 18.667 6.13765 18.8644L7.71862 19.7621C8.05986 19.9558 8.23048 20.0527 8.38362 20.032C8.53676 20.0114 8.70948 19.839 9.0549 19.4943C10.3932 18.1588 12.608 18.1587 13.9464 19.4942C14.2918 19.839 14.4645 20.0113 14.6177 20.0319C14.7708 20.0526 14.9415 19.9557 15.2826 19.762L16.8636 18.8643C17.2114 18.6669 17.3853 18.5682 17.4458 18.4249C17.5064 18.2817 17.4429 18.0375 17.316 17.549C16.8544 15.7729 17.9724 13.9038 19.76 13.4216Z" stroke="#918F91" stroke-width="2" stroke-linecap="round"/>
</svg>
