<svg width="23" height="23" viewBox="0 0 23 23" fill="none" xmlns="http://www.w3.org/2000/svg">
<path d="M13.0836 3.65733L14.6967 6.9103C14.9167 7.36312 15.5033 7.79747 15.9983 7.88064L18.9221 8.37043C20.7919 8.68465 21.2319 10.0524 19.8845 11.4016L17.6114 13.6935C17.2264 14.0816 17.0157 14.8301 17.1348 15.3662L17.7856 18.2033C18.2988 20.4489 17.1164 21.3177 15.1459 20.144L12.4053 18.5083C11.9104 18.2125 11.0947 18.2125 10.5905 18.5083L7.85 20.144C5.88854 21.3177 4.69701 20.4397 5.21029 18.2033L5.86105 15.3662C5.9802 14.8301 5.76939 14.0816 5.38443 13.6935L3.11135 11.4016C1.77317 10.0524 2.20396 8.68465 4.07374 8.37043L6.99759 7.88064C7.48337 7.79747 8.06997 7.36312 8.28994 6.9103L9.90308 3.65733C10.783 1.89222 12.2128 1.89222 13.0836 3.65733Z" stroke="#918F91" stroke-width="2" stroke-linecap="round" stroke-linejoin="round"/>
</svg>
